<?xml version="1.0" encoding="utf-8"?>
<!-- Generator: Adobe Illustrator 16.0.0, SVG Export Plug-In . SVG Version: 6.00 Build 0)  -->
<!DOCTYPE svg PUBLIC "-//W3C//DTD SVG 1.1//EN" "http://www.w3.org/Graphics/SVG/1.1/DTD/svg11.dtd">
<svg version="1.1" id="Layer_1" xmlns="http://www.w3.org/2000/svg" xmlns:xlink="http://www.w3.org/1999/xlink" x="0px" y="0px"
	 width="512px" height="512px" viewBox="0 0 512 512" enable-background="new 0 0 512 512" xml:space="preserve">
<g id="guides">
</g>
<g id="icon_1_">
	<circle fill="#231F20" cx="256" cy="256" r="192"/>
	<circle fill="#22B24E" cx="256" cy="256" r="168"/>
	<path fill="#24CE5C" d="M256,112c-88.749,0-161.415,68.817-167.569,156c6.154,87.182,78.82,156,167.569,156
		c88.748,0,161.414-68.818,167.568-156C417.414,180.817,344.748,112,256,112z"/>
	<path fill="#45ED7D" d="M423.806,264C419.629,174.932,346.101,104,256,104c-90.102,0-163.629,70.932-167.806,160
		c0.063,1.338,0.143,2.672,0.237,4.001C94.584,180.818,167.251,112,256,112c88.748,0,161.416,68.818,167.568,156.001
		C423.662,266.672,423.743,265.338,423.806,264z"/>
	<g>
		<path fill="#231F20" d="M382.862,237.036c-0.05,11.803-12.805,19.031-23.487,13.167c-7.245-3.979-14.66-7.583-22.385-10.589
			c-15.348-5.97-31.254-9.987-47.51-12.771c-11.316-1.938-22.717-3.22-34.181-3.888c-11.919-0.694-23.846-0.776-35.783-0.177
			c-13.677,0.687-27.246,2.145-40.636,4.95c-4.941,1.036-9.825,2.342-14.711,3.608c-2.996,0.777-5.949,0.876-8.934,0.028
			c-6.533-1.854-11.037-7.534-11.23-14.185c-0.188-6.46,3.919-12.466,10.374-14.53c4.725-1.511,9.574-2.699,14.426-3.787
			c12.011-2.694,24.189-4.359,36.466-5.446c13.034-1.155,26.093-1.526,39.16-1.164c32.194,0.895,63.761,5.463,94.311,15.696
			c12.456,4.173,24.444,9.352,35.84,15.804c4.063,2.3,6.79,5.541,7.827,10.024C382.657,234.844,382.716,235.949,382.862,237.036z"/>
		<path fill="#231F20" d="M230.787,273.445c-19.188,0.078-38.845,2.386-58.044,7.914c-3.129,0.9-6.268,0.961-9.333-0.243
			c-4.988-1.96-8.234-6.812-8.058-11.943c0.183-5.354,3.548-10.018,8.867-11.593c5.413-1.604,10.907-2.994,16.433-4.186
			c13.602-2.931,27.389-4.481,41.318-4.994c29.969-1.104,59.244,2.658,87.806,11.54c14.44,4.492,28.257,10.373,41.306,17.902
			c0.649,0.375,1.293,0.758,1.938,1.141c6.806,4.035,7.616,12.156,4.372,17.332c-3.712,5.916-11.428,7.757-17.843,4.246
			c-3.618-1.979-7.193-4.045-10.894-5.875c-16.959-8.387-34.938-13.822-53.595-17.25
			C260.693,274.798,246.195,273.508,230.787,273.445z"/>
		<path fill="#231F20" d="M233.786,301.059c22.089,0.228,43.696,3.123,64.668,9.985c11.566,3.785,22.614,8.683,33.104,14.746
			c0.908,0.524,1.83,1.043,2.67,1.661c4.233,3.119,5.332,8.767,2.607,13.213c-2.642,4.313-8.248,6.047-13.042,3.993
			c-0.963-0.413-1.864-0.968-2.773-1.489c-17.779-10.229-36.965-16.561-57.358-19.591c-12.514-1.859-25.099-2.505-37.735-2.022
			c-16.345,0.623-32.485,2.824-48.455,6.254c-1.613,0.348-3.273,0.662-4.913,0.68c-4.945,0.052-9.119-3.352-9.987-7.965
			c-0.919-4.885,1.576-9.465,6.193-11.267c0.975-0.38,2.015-0.623,3.044-0.848c13.063-2.845,26.247-4.997,39.587-6.093
			C218.843,301.706,226.322,301.466,233.786,301.059z"/>
	</g>
</g>
</svg>
