<?xml version="1.0" ?><!DOCTYPE svg  PUBLIC '-//W3C//DTD SVG 1.1//EN'  'http://www.w3.org/Graphics/SVG/1.1/DTD/svg11.dtd'><svg enable-background="new 0 0 512 512" height="512px" version="1.1" viewBox="0 0 512 512" width="512px" xml:space="preserve" xmlns="http://www.w3.org/2000/svg" xmlns:xlink="http://www.w3.org/1999/xlink"><g id="guides"/><g id="icon_1_"><circle cx="256" cy="256" fill="#231F20" r="192"/><circle cx="256" cy="256" fill="#22B24E" r="168"/><path d="M256,112c-88.749,0-161.415,68.817-167.569,156c6.154,87.182,78.82,156,167.569,156   c88.748,0,161.414-68.818,167.568-156C417.414,180.817,344.748,112,256,112z" fill="#24CE5C"/><path d="M423.806,264C419.629,174.932,346.101,104,256,104c-90.102,0-163.629,70.932-167.806,160   c0.063,1.338,0.143,2.672,0.237,4.001C94.584,180.818,167.251,112,256,112c88.748,0,161.416,68.818,167.568,156.001   C423.662,266.672,423.743,265.338,423.806,264z" fill="#45ED7D"/><g><path clip-rule="evenodd" d="M382.862,237.036c-0.05,11.803-12.804,19.031-23.487,13.167    c-7.245-3.979-14.66-7.583-22.385-10.589c-15.347-5.97-31.253-9.987-47.51-12.77c-11.316-1.938-22.717-3.22-34.18-3.888    c-11.919-0.694-23.846-0.776-35.783-0.177c-13.677,0.687-27.246,2.145-40.636,4.95c-4.941,1.036-9.825,2.342-14.711,3.608    c-2.996,0.777-5.949,0.876-8.934,0.028c-6.533-1.854-11.037-7.534-11.23-14.185c-0.188-6.46,3.919-12.466,10.374-14.53    c4.725-1.511,9.574-2.699,14.426-3.787c12.011-2.694,24.189-4.359,36.466-5.446c13.034-1.155,26.093-1.526,39.16-1.164    c32.194,0.895,63.761,5.463,94.311,15.696c12.456,4.173,24.445,9.352,35.84,15.804c4.063,2.3,6.79,5.541,7.827,10.024    C382.657,234.844,382.716,235.949,382.862,237.036z" fill="#231F20" fill-rule="evenodd"/><path clip-rule="evenodd" d="M230.787,273.445c-19.188,0.078-38.845,2.386-58.044,7.915    c-3.129,0.9-6.268,0.961-9.333-0.244c-4.988-1.96-8.234-6.812-8.058-11.943c0.183-5.354,3.548-10.018,8.867-11.593    c5.413-1.604,10.907-2.994,16.433-4.186c13.602-2.931,27.389-4.481,41.318-4.994c29.969-1.104,59.244,2.658,87.806,11.54    c14.441,4.491,28.257,10.372,41.306,17.902c0.649,0.375,1.293,0.758,1.938,1.14c6.805,4.035,7.616,12.156,4.372,17.332    c-3.712,5.917-11.428,7.757-17.843,4.246c-3.618-1.979-7.194-4.045-10.894-5.874c-16.959-8.387-34.938-13.823-53.595-17.25    C260.693,274.798,246.195,273.508,230.787,273.445z" fill="#231F20" fill-rule="evenodd"/><path clip-rule="evenodd" d="M233.786,301.059c22.089,0.227,43.697,3.123,64.668,9.985    c11.567,3.785,22.614,8.683,33.104,14.746c0.908,0.525,1.83,1.043,2.67,1.661c4.233,3.12,5.332,8.767,2.607,13.213    c-2.642,4.313-8.248,6.047-13.042,3.993c-0.963-0.413-1.864-0.967-2.773-1.489c-17.78-10.228-36.966-16.561-57.359-19.591    c-12.514-1.859-25.099-2.505-37.735-2.022c-16.345,0.623-32.485,2.824-48.455,6.254c-1.613,0.347-3.273,0.662-4.913,0.679    c-4.945,0.052-9.119-3.351-9.987-7.964c-0.919-4.886,1.576-9.465,6.193-11.267c0.975-0.38,2.015-0.623,3.044-0.848    c13.063-2.845,26.247-4.997,39.587-6.093C218.843,301.706,226.322,301.466,233.786,301.059z" fill="#231F20" fill-rule="evenodd"/></g></g></svg>