<?xml version="1.0" encoding="utf-8"?>
<!-- Generator: Adobe Illustrator 16.0.0, SVG Export Plug-In . SVG Version: 6.00 Build 0)  -->
<!DOCTYPE svg PUBLIC "-//W3C//DTD SVG 1.1//EN" "http://www.w3.org/Graphics/SVG/1.1/DTD/svg11.dtd">
<svg version="1.1" id="Layer_1" xmlns="http://www.w3.org/2000/svg" xmlns:xlink="http://www.w3.org/1999/xlink" x="0px" y="0px"
	 width="512px" height="512px" viewBox="0 0 512 512" enable-background="new 0 0 512 512" xml:space="preserve">
<g id="Layer_1_1_" display="none">
	<g id="guides" display="inline">
	</g>
	<g id="icon_1_" display="inline">
		<circle fill="#231F20" cx="256" cy="256" r="192"/>
		<circle fill="#22B24E" cx="256" cy="256" r="168"/>
		<path fill="#24CE5C" d="M256,112c-88.749,0-161.415,68.817-167.569,156c6.154,87.182,78.82,156,167.569,156
			c88.748,0,161.414-68.818,167.568-156C417.414,180.817,344.748,112,256,112z"/>
		<path fill="#45ED7D" d="M423.806,264C419.629,174.932,346.101,104,256,104c-90.102,0-163.629,70.932-167.806,160
			c0.063,1.338,0.143,2.672,0.237,4.001C94.584,180.818,167.251,112,256,112c88.748,0,161.416,68.818,167.568,156.001
			C423.662,266.672,423.743,265.338,423.806,264z"/>
		<g>
			<path fill="#231F20" d="M382.862,237.036c-0.05,11.803-12.806,19.031-23.487,13.167c-7.245-3.979-14.66-7.583-22.385-10.589
				c-15.349-5.97-31.254-9.987-47.51-12.771c-11.316-1.938-22.717-3.22-34.182-3.888c-11.919-0.694-23.846-0.776-35.783-0.177
				c-13.677,0.687-27.246,2.145-40.636,4.95c-4.941,1.036-9.825,2.342-14.711,3.608c-2.996,0.777-5.949,0.876-8.934,0.028
				c-6.533-1.854-11.037-7.534-11.23-14.185c-0.188-6.46,3.919-12.466,10.374-14.53c4.725-1.511,9.574-2.699,14.426-3.787
				c12.011-2.694,24.189-4.359,36.466-5.446c13.034-1.155,26.093-1.526,39.16-1.164c32.194,0.895,63.761,5.463,94.311,15.696
				c12.456,4.173,24.443,9.352,35.84,15.804c4.063,2.3,6.79,5.541,7.827,10.024C382.657,234.844,382.716,235.949,382.862,237.036z"
				/>
			<path fill="#231F20" d="M230.787,273.445c-19.188,0.078-38.845,2.386-58.044,7.914c-3.129,0.899-6.268,0.961-9.333-0.243
				c-4.988-1.96-8.234-6.812-8.058-11.943c0.183-5.354,3.548-10.019,8.867-11.593c5.413-1.604,10.907-2.994,16.433-4.186
				c13.602-2.931,27.389-4.481,41.318-4.994c29.969-1.104,59.244,2.658,87.806,11.54c14.439,4.492,28.257,10.373,41.306,17.902
				c0.649,0.375,1.293,0.758,1.938,1.141c6.807,4.035,7.616,12.156,4.372,17.332c-3.712,5.916-11.428,7.758-17.843,4.246
				c-3.618-1.979-7.192-4.045-10.894-5.875c-16.959-8.387-34.938-13.821-53.595-17.25
				C260.693,274.798,246.195,273.508,230.787,273.445z"/>
			<path fill="#231F20" d="M233.786,301.059c22.089,0.229,43.696,3.123,64.668,9.985c11.565,3.785,22.614,8.683,33.104,14.746
				c0.908,0.524,1.83,1.043,2.67,1.661c4.233,3.119,5.332,8.767,2.607,13.213c-2.642,4.313-8.248,6.047-13.042,3.993
				c-0.963-0.413-1.864-0.968-2.773-1.489c-17.778-10.229-36.965-16.561-57.357-19.591c-12.514-1.859-25.099-2.505-37.735-2.022
				c-16.345,0.623-32.485,2.824-48.455,6.254c-1.613,0.349-3.273,0.662-4.913,0.68c-4.945,0.053-9.119-3.352-9.987-7.965
				c-0.919-4.885,1.576-9.465,6.193-11.267c0.975-0.38,2.015-0.623,3.044-0.848c13.063-2.845,26.247-4.997,39.587-6.093
				C218.843,301.706,226.322,301.466,233.786,301.059z"/>
		</g>
	</g>
</g>
<g id="Layer_2">
	<g>
		<g>
			<path fill="#FEFEFE" d="M257.493,513.436c-84.302,0-168.604-0.021-252.906,0.082c-3.233,0.004-4.194-0.391-4.192-3.992
				C0.516,340.754,0.511,171.983,0.416,3.211c-0.002-3.213,0.838-3.784,3.87-3.783c168.771,0.08,337.542,0.089,506.313-0.041
				c3.755-0.003,3.907,1.194,3.906,4.273c-0.078,168.604-0.084,337.208,0.03,505.813c0.002,3.498-0.793,4.058-4.136,4.054
				C426.098,513.411,341.795,513.436,257.493,513.436z"/>
			<path fill="#231F20" d="M257.611,64.497c105.928,0.099,191.842,86.088,191.826,191.993
				c-0.016,106.095-86.348,192.236-192.369,191.949C151.092,448.15,65.311,362.068,65.496,256.194
				C65.683,150.248,151.719,64.398,257.611,64.497z"/>
			<path fill="#24CD5C" d="M425.203,266.389c-1.434,26.002-8.399,50.473-21.52,72.926c-26.458,45.277-65.574,73.591-117.203,82.632
				c-49.994,8.755-95.542-3.218-135.147-35.273c-32.31-26.151-51.826-60.198-59.487-101.008c-1.192-6.349-2.023-12.791-2.109-19.288
				c0.528-1.625,0.145-3.302,0.277-4.952c0.021-0.491,0.112-0.967,0.271-1.432c0.249-3.226,0.315-6.465,0.853-9.663
				c-0.006-2.077,0.645-4.045,0.979-6.065c10.629-46.693,36.382-82.656,76.885-108.072c30.341-19.04,63.694-27.018,99.172-24.794
				c36.969,2.317,69.963,15.531,98.346,39.66c29.009,24.661,47.872,55.471,56.185,92.679c0.358,2.399,0.887,4.769,1.397,7.143
				c0.147,0.472,0.231,0.953,0.275,1.443c0.088,1.729,0.047,3.459,0.064,5.189C424.779,260.463,424.857,263.438,425.203,266.389z"/>
			<path fill="#22B14E" d="M89.655,256.502c-0.195-33.917,9.223-65.048,28.036-93.137c21.461-32.043,50.491-54.971,87.369-66.355
				c59.204-18.277,113.5-7.894,161.332,31.896c31.134,25.896,49.564,59.541,56.656,99.318c1.658,9.3,2.835,18.749,2.234,28.28
				c-0.467,0.242-0.866,0.158-1.197-0.251c-0.464-1.562,0.443-3.308-0.643-4.786v0.004c-1.021-2.175,0.009-4.733-1.285-6.854
				c-3.549-20.368-10.565-39.508-21.365-57.095c-28.427-46.293-69.566-74.022-123.558-80.339
				c-56.526-6.613-104.672,12.017-143.468,53.597c-20.154,21.601-32.713,47.527-39.542,76.242c-0.537,2.261-1.125,4.514-1.701,6.768
				c-0.037,2.074-0.753,4.035-1.003,6.073c0.121,2.102-0.616,4.116-0.622,6.204C90.633,256.641,90.219,256.785,89.655,256.502z"/>
			<path fill="#34CC64" d="M424.474,256.447c0.271,0.011,0.539,0.029,0.81,0.056c-0.026,3.295-0.053,6.591-0.079,9.886
				c-0.579-2.984-1.157-5.969-1.735-8.951C423.844,257.148,423.86,256.495,424.474,256.447z"/>
			<path fill="#34CD65" d="M89.655,256.502c0.263-0.039,0.525-0.078,0.789-0.116c0.806,1.353,0.754,2.713,0.046,4.084
				c0.003,0.332,0.003,0.664,0,0.996c-0.28,0.461-0.561,0.438-0.842,0C89.65,259.813,89.652,258.157,89.655,256.502z"/>
			<path fill="#33CE66" d="M89.648,261.467c0.28,0,0.562,0,0.842,0c-0.202,1.645,0.548,3.436-0.752,4.909
				C89.708,264.74,89.678,263.104,89.648,261.467z"/>
			<path d="M212.447,258.467c0-15.996-0.011-31.991,0.006-47.986c0.006-5.703,0.784-11.303,2.902-16.623
				c3.375-8.477,9.874-11.856,18.76-9.873c4.909,1.097,9.542,2.947,13.872,5.489c27.85,16.353,55.708,32.689,83.497,49.148
				c5.448,3.227,10.6,6.963,14.125,12.453c3.881,6.04,3.805,11.284-0.268,17.188c-3.594,5.215-8.65,8.787-14.014,11.834
				c-27.79,15.782-55.644,31.455-83.503,47.116c-4.507,2.533-9.274,4.494-14.354,5.64c-9.627,2.17-16.407-1.418-19.632-10.684
				c-1.706-4.902-2.359-10.033-2.337-15.232c0.035-8.164,0.116-16.328,0.142-24.492c0.025-7.991,0.006-15.983,0.006-23.977
				C211.914,258.468,212.18,258.467,212.447,258.467z"/>
			<path fill="#45EC7C" d="M91.626,243.5c3.57-16.08,8.124-31.849,15.707-46.556c15.719-30.487,38.34-54.357,68.377-71.146
				c21.04-11.76,43.456-18.53,67.525-20.469c46.151-3.717,86.933,9.21,122.363,38.815c29.595,24.729,48.176,56.201,56.266,93.909
				c0.463,2.162,0.569,4.262,0.563,6.418c-0.308,0.34-0.611,0.321-0.914-0.011c-5.821-26.962-17.694-50.88-35.473-72.02
				c-15.427-18.343-33.834-32.76-55.292-43.225c-17.875-8.717-36.761-13.861-56.647-15.862
				c-32.441-3.262-63.153,2.405-92.122,16.993c-30.132,15.173-53.589,37.58-70.463,66.902
				c-8.526,14.816-14.548,30.512-18.098,47.196C92.351,245.021,92.063,244.121,91.626,243.5z"/>
			<path fill="#33CE66" d="M90.49,260.471c-0.015-1.361-0.03-2.723-0.046-4.085c0.05-2.322,0.1-4.644,0.148-6.965
				c1.053-0.448,1.351,0.496,1.877,1.019C91.446,253.711,92.144,257.322,90.49,260.471z"/>
			<path fill="#44EA7B" d="M92.47,250.439c-0.627-0.34-1.253-0.679-1.877-1.019c1.031-1.854,0.9-3.911,1.032-5.921
				c0.6,0.315,1.197,0.631,1.795,0.946C93.102,246.443,92.785,248.441,92.47,250.439z"/>
			<path fill="#43E87A" d="M421.513,244.461c0.306,0.004,0.61,0.008,0.914,0.011c2.005,2.09,0.603,4.676,1.016,6.998
				C421.845,249.397,422.449,246.717,421.513,244.461z"/>
			<path fill="#41E678" d="M424.474,256.447c-0.336,0.331-0.671,0.661-1.007,0.991c-0.008-1.992-0.017-3.981-0.024-5.972
				C425.071,252.86,424.216,254.77,424.474,256.447z"/>
		</g>
	</g>
</g>
<g id="Layer_3" display="none">
</g>
</svg>
